<svg xmlns="http://www.w3.org/2000/svg" width="16.97" height="10.438" viewBox="0 0 16.97 10.438">
  <defs>
    <style>
      .cls-1 {
        fill: #fff;
        fill-rule: evenodd;
      }
    </style>
  </defs>
  <path id="icon-builds" class="cls-1" d="M1380.92,338.553h6.27a1.333,1.333,0,0,0,0-2.666h-6.27A1.333,1.333,0,0,0,1380.92,338.553Zm-8.97-.421a1.312,1.312,0,0,0,.97.421,1.325,1.325,0,0,0,.91-0.361l4.14-3.879a1.335,1.335,0,0,0,0-1.944l-4.14-3.88a1.332,1.332,0,0,0-1.82,1.945l3.1,2.907-3.1,2.906A1.326,1.326,0,0,0,1371.95,338.132Z" transform="translate(-1371.56 -328.125)"/>
</svg>
