<svg xmlns="http://www.w3.org/2000/svg" width="17" height="17" viewBox="0 0 17 17">
  <defs>
    <style>
      .cls-1 {
        fill: #fff;
        fill-rule: evenodd;
      }
    </style>
  </defs>
  <path id="icon-integrations" class="cls-1" d="M89.8,261.305a4.6,4.6,0,0,0-1.825.4v-4.684H83.288a4.575,4.575,0,0,0,.4-1.823,2.2,2.2,0,0,0-4.393,0,4.574,4.574,0,0,0,.4,1.823H75v5.062a4.933,4.933,0,0,1,2.554-.776,2.194,2.194,0,1,1,0,4.387A4.923,4.923,0,0,1,75,264.916V270H87.978v-4.709a4.584,4.584,0,0,0,1.825.4A2.194,2.194,0,1,0,89.8,261.305Z" transform="translate(-75 -253)"/>
</svg>
