<svg xmlns="http://www.w3.org/2000/svg" width="19" height="11" viewBox="0 0 19 11">
  <defs>
    <style>
      .cls-1 {
        fill: #fff;
        fill-rule: evenodd;
      }
    </style>
  </defs>
  <path id="icon-collaborators" class="cls-1" d="M1585.5,273.307l-0.03-.054a5.854,5.854,0,0,0-2.8-2.666,4.462,4.462,0,0,1,2.44-.665h0a4.1,4.1,0,0,1,3.89,2.255v1.129h-3.5Zm-0.39-5.077a2.115,2.115,0,1,1,2.16-2.115A2.14,2.14,0,0,1,1585.11,268.23Zm-5.61.846a2.539,2.539,0,1,1,2.59-2.538A2.564,2.564,0,0,1,1579.5,269.076Zm-5.98,4.177-0.02.054H1570v-1.129a4.1,4.1,0,0,1,3.89-2.255h0a4.462,4.462,0,0,1,2.44.665A5.963,5.963,0,0,0,1573.52,273.253Zm0.37-5.023a2.115,2.115,0,1,1,2.16-2.115A2.133,2.133,0,0,1,1573.89,268.23Zm5.61,2.538a5.474,5.474,0,0,1,5.18,2.82V275h-10.36v-1.41A5.472,5.472,0,0,1,1579.5,270.768Z" transform="translate(-1570 -264)"/>
</svg>
