<svg xmlns="http://www.w3.org/2000/svg" width="20.375" height="10.656" viewBox="0 0 20.375 10.656">
  <defs>
    <style>
      .cls-1 {
        fill: #fff;
        fill-rule: evenodd;
      }
    </style>
  </defs>
  <path id="iocn-health" class="cls-1" d="M9.229,339.177h7.792a0.969,0.969,0,0,0,.9-0.616l0.706-1.807,2.049,6.162a0.97,0.97,0,0,0,.882.663H21.6a0.967,0.967,0,0,0,.893-0.594l2.449-5.825,0.759,1.487a0.969,0.969,0,0,0,.863.528H28.64a0.969,0.969,0,1,0,0-1.937H27.155l-1.437-2.815a0.982,0.982,0,0,0-.9-0.528,0.969,0.969,0,0,0-.857.592l-2.258,5.37-2.082-6.26a0.967,0.967,0,0,0-.894-0.663,1,1,0,0,0-.928.616l-1.441,3.688H9.229" transform="translate(-9.219 -332.938)"/>
</svg>
