<svg xmlns="http://www.w3.org/2000/svg" width="21" height="16" viewBox="0 0 21 16">
  <metadata><?xpacket begin="﻿" id="W5M0MpCehiHzreSzNTczkc9d"?>
<x:xmpmeta xmlns:x="adobe:ns:meta/" x:xmptk="Adobe XMP Core 5.6-c138 79.159824, 2016/09/14-01:09:01        ">
   <rdf:RDF xmlns:rdf="http://www.w3.org/1999/02/22-rdf-syntax-ns#">
      <rdf:Description rdf:about=""/>
   </rdf:RDF>
</x:xmpmeta>

<?xpacket end="w"?></metadata>
<defs>
    <style>
      .cls-1 {
        fill: #ee534f;
        fill-rule: evenodd;
      }
    </style>
  </defs>
  <path id="iconuptime" class="cls-1" d="M2347.81,2681.01a0.9,0.9,0,0,1-.98-0.64l-1.3-5.97-0.82,1.44a0.893,0.893,0,0,1-.81.47h-2.93a0.933,0.933,0,0,1-.98-0.95,0.984,0.984,0,0,1,.98-0.96h2.44l1.79-3.02a1.082,1.082,0,0,1,.98-0.48,0.966,0.966,0,0,1,.82.71l0.73,3.67,1.79-9.56a0.9,0.9,0,0,1,.98-0.72h0a0.953,0.953,0,0,1,.97.8l1.88,10.67,0.57-1.51a0.878,0.878,0,0,1,.89-0.56h5.22a0.955,0.955,0,1,1,0,1.91h-4.56l-1.63,3.98a0.893,0.893,0,0,1-.98.56,1.028,1.028,0,0,1-.81-0.79l-1.55-8.76-1.63,8.92a1.032,1.032,0,0,1-1.06.79h0Z" transform="translate(-2340 -2665)"/>
</svg>
