<svg xmlns="http://www.w3.org/2000/svg" width="17.87" height="20.4" viewBox="0 0 17.87 20.4">
  <metadata><?xpacket begin="﻿" id="W5M0MpCehiHzreSzNTczkc9d"?>
<x:xmpmeta xmlns:x="adobe:ns:meta/" x:xmptk="Adobe XMP Core 5.6-c138 79.159824, 2016/09/14-01:09:01        ">
   <rdf:RDF xmlns:rdf="http://www.w3.org/1999/02/22-rdf-syntax-ns#">
      <rdf:Description rdf:about=""/>
   </rdf:RDF>
</x:xmpmeta>
<?xpacket end="w"?></metadata>
<defs>
    <style>
      .cls-1 {
        fill: #58b754;
        fill-rule: evenodd;
      }
    </style>
  </defs>
  <path id="icon-performance" class="cls-1" d="M2244.1,2675.06a8.937,8.937,0,1,1-8.93-8.75,9.146,9.146,0,0,1,5.56,1.95l1.39-1.36a18.2,18.2,0,0,1,1.49,1.36l-1.49,1.36A8.164,8.164,0,0,1,2244.1,2675.06Zm-8.93-6.8a6.8,6.8,0,1,0,6.95,6.8A6.828,6.828,0,0,0,2235.17,2668.26Zm-1,1.94h1.99v5.83h-1.99v-5.83Zm-1.98-6.8h5.96v1.94h-5.96v-1.94Z" transform="translate(-2226.22 -2663.41)"/>
</svg>
