<svg xmlns="http://www.w3.org/2000/svg" width="20" height="20" viewBox="0 0 20 20">
  <metadata><?xpacket begin="﻿" id="W5M0MpCehiHzreSzNTczkc9d"?>
<x:xmpmeta xmlns:x="adobe:ns:meta/" x:xmptk="Adobe XMP Core 5.6-c138 79.159824, 2016/09/14-01:09:01        ">
   <rdf:RDF xmlns:rdf="http://www.w3.org/1999/02/22-rdf-syntax-ns#">
      <rdf:Description rdf:about=""/>
   </rdf:RDF>
</x:xmpmeta>

<?xpacket end="w"?></metadata>
<defs>
    <style>
      .cls-1 {
        fill: #58b754;
        fill-rule: evenodd;
      }
    </style>
  </defs>
  <path id="icon-updates" class="cls-1" d="M2477.46,2669.97h-0.93a0.769,0.769,0,0,0-.78.75l0.72,4.98a0.481,0.481,0,0,0,.46.4h0.13a0.481,0.481,0,0,0,.46-0.4l0.72-4.98A0.769,0.769,0,0,0,2477.46,2669.97Zm7.44,10.77a0.989,0.989,0,0,1-.81.28H2469.9a0.951,0.951,0,0,1-.8-0.28,0.884,0.884,0,0,1,.11-0.82l7.45-14.43a1.392,1.392,0,0,1,.38-0.5,0.983,0.983,0,0,1,.41.5l7.34,14.41A0.924,0.924,0,0,1,2484.9,2680.74Zm1.72-1.72-7.34-14.41a2.338,2.338,0,0,0-4.44-.01l-7.45,14.42a2.725,2.725,0,0,0-.03,2.76,2.886,2.886,0,0,0,2.54,1.22h14.19a2.886,2.886,0,0,0,2.54-1.22A2.721,2.721,0,0,0,2486.62,2679.02Zm-9.63-2.2a1.131,1.131,0,1,0,1.17,1.13A1.148,1.148,0,0,0,2476.99,2676.82Z" transform="translate(-2467 -2663)"/>
</svg>
