<svg xmlns="http://www.w3.org/2000/svg" width="15.5" height="20.4" viewBox="0 0 15.5 20.4">
  <metadata><?xpacket begin="﻿" id="W5M0MpCehiHzreSzNTczkc9d"?>
<x:xmpmeta xmlns:x="adobe:ns:meta/" x:xmptk="Adobe XMP Core 5.6-c138 79.159824, 2016/09/14-01:09:01        ">
   <rdf:RDF xmlns:rdf="http://www.w3.org/1999/02/22-rdf-syntax-ns#">
      <rdf:Description rdf:about=""/>
   </rdf:RDF>
</x:xmpmeta>
<?xpacket end="w"?></metadata>
<defs>
    <style>
      .cls-1 {
        fill: #b5b5b5;
        fill-rule: evenodd;
      }
    </style>
  </defs>
  <path id="icon-security" class="cls-1" d="M2125.56,2683.6h-11.62a1.942,1.942,0,0,1-1.94-1.94v-9.72a1.942,1.942,0,0,1,1.94-1.94h0.96v-1.94a4.845,4.845,0,1,1,9.69,0V2670h0.97a1.94,1.94,0,0,1,1.93,1.94v9.72A1.94,1.94,0,0,1,2125.56,2683.6Zm-2.81-15.54a3.005,3.005,0,1,0-6.01,0h0.1V2670h5.91v-1.94Zm2.81,3.88h-11.62v9.72h11.62v-9.72Zm-5.81,2.92a1.94,1.94,0,1,1-1.94,1.94A1.94,1.94,0,0,1,2119.75,2674.86Z" transform="translate(-2112 -2663.19)"/>
</svg>
