<?xml version="1.0" standalone="no"?>
<!DOCTYPE svg PUBLIC "-//W3C//DTD SVG 1.1//EN" "http://www.w3.org/Graphics/SVG/1.1/DTD/svg11.dtd" >
<svg xmlns="http://www.w3.org/2000/svg">
<metadata>Generated by IcoMoon</metadata>
<defs>
<font id="milkshayk" horiz-adv-x="512">
<font-face units-per-em="512" ascent="480" descent="-32" />
<missing-glyph horiz-adv-x="512" />
<glyph unicode="&#x20;" d="" horiz-adv-x="256" />
<glyph unicode="&#xe600;" d="M480-32h-448c-17.664 0-32 14.336-32 32v448c0 17.664 14.336 32 32 32h384l96-96v-384c0-17.664-14.336-32-32-32zM128 48c0-8.848 7.168-16 16-16h224c8.848 0 16 7.152 16 16v128c0 8.848-7.152 16-16 16h-224c-8.832 0-16-7.152-16-16v-128zM352 400c0 8.848-7.152 16-16 16s-16-7.152-16-16v-48c0-8.848 7.152-16 16-16s16 7.152 16 16v48zM448 368l-48 48h-16v-112c0-8.848-7.152-16-16-16h-224c-8.832 0-16 7.152-16 16v112h-48c-8.832 0-16-7.152-16-16v-352c0-8.848 7.168-16 16-16h16v176c0 8.848 7.168 16 16 16h288c8.848 0 16-7.152 16-16v-176h16c8.848 0 16 7.152 16 16v320z" />
<glyph unicode="&#xe601;" d="M449.448 173.712c0 9.036-7.304 16.341-16.341 16.341h-105.805v61.865c0 19.837-15.474 35.916-35.002 37.191 23.057 2.125 46.538 19.265 43.336 65.607-3.415 49.708-78.974 97.358-78.974 97.358s17.043-49.692 12.958-68.761-29.282-19.739-29.282-46.293c0-20.589 21.39-46.799 45.182-48.090-18.612-2.173-33.106-17.811-33.106-37.012v-61.865h-82.112c-9.020 0-16.34-7.304-16.34-16.341l-17.697-152.523c-4.085-17.697 20.933-29.952 29.952-29.952h270.976c9.036 0 25.867 16.341 27.224 32.681l-14.968 149.795zM266.221 334.291c0 16.34 12.321 17.697 17.697 23.825 9.526 10.899 6.127 37.452 6.127 37.452s23.154-22.468 23.154-50.378c0-21.112-6.127-33.368-23.154-33.368-16.341 0-23.825 10.899-23.825 22.469zM278.983 252.588c0 6.013 4.87 10.899 10.899 10.899 6.014 0 10.899-4.869 10.899-10.899v-62.535h-21.782v62.536zM196.169 162.208h211.071c9.036 0 16.341-7.304 16.341-16.341l2.778-32.24c-7.108-4.281-18.367-8.791-34.855-8.791-31.325 0-52.421 19.756-87.831 19.756s-74.219-21.144-99.956-21.144c-10.654 0-20.099 1.896-27.648 4.085l3.758 38.335c0 9.036 7.321 16.341 16.34 16.341zM416.767 18.476h-231.498c-9.020 0-16.34 7.304-16.34 16.341l4.739 48.286c6.912-2.255 15.948-4.134 27.174-4.134 27.91 0 69.448 20.769 105.331 20.769s60.803-20.785 81.981-20.785c13.449 0 30.067 4.951 40.426 8.546l4.526-52.682c0-9.020-7.304-16.341-16.341-16.341z" horiz-adv-x="569" />
<glyph unicode="&#xe602;" d="M317.743 274.353c32.436 7.663 56.784 37.322 56.784 72.83 0 41.293-32.861 74.889-73.206 74.889-40.361 0-73.206-33.596-73.206-74.889 0-35.524 24.347-65.183 56.817-72.846 5.31 1.258 10.719 2.091 16.308 2.091 5.637 0 11.128-0.833 16.504-2.076zM250.534 347.576c0 28.008 22.714 50.721 50.721 50.721 28.041 0 50.738-22.714 50.738-50.721 0-28.024-22.714-50.738-50.738-50.738-28.008 0.017-50.721 22.73-50.721 50.738zM317.743 274.353c-5.376 1.242-10.866 2.075-16.536 2.075-5.589 0-10.997-0.849-16.308-2.091 5.295-1.242 10.752-2.042 16.389-2.042 5.687-0.017 11.144 0.8 16.455 2.059zM317.743 274.353c-5.31-1.258-10.769-2.059-16.438-2.059-5.654 0-11.111 0.801-16.389 2.043-51.146-12.060-88.027-69.399-88.027-168.145v-15.638h56.392v-75.412h98.73v75.412h55.378v15.638c-0.017 94.661-37.584 156.118-89.644 168.161zM381.030 115.36h-53.532v-75.183h-51.065v75.183h-54.577v12.632c1.47 64.676 33.923 123.388 78.876 123.388 45.786 0 80.298-60.068 80.298-123.388v-12.632z" horiz-adv-x="569" />
<glyph unicode="&#xe603;" d="M301.059 416.942c-74.334 0-134.81-60.82-134.81-135.578 0-72.585 124.352-242.005 129.663-249.178 1.193-1.634 3.121-2.582 5.147-2.582 2.043 0 3.921 0.964 5.147 2.582 5.278 7.173 129.663 164.566 129.663 249.178 0 74.758-60.476 135.578-134.81 135.578zM302.301 66.043c-1.7 0-3.284 0.849-4.248 2.272-4.38 6.275-106.639 163.194-106.639 207.771 0 65.329 49.79 118.469 111.001 118.469 61.195 0 110.986-53.139 110.986-118.469 0-50.721-102.521-201.513-106.9-207.771-0.948-1.438-2.517-2.272-4.2-2.272zM301.092 347.135c-35.737 0-64.676-28.956-64.676-64.676s28.939-64.676 64.676-64.676c35.721 0 64.676 28.956 64.676 64.676s-28.955 64.676-64.676 64.676zM301.092 239.81c-23.563 0-42.666 19.086-42.666 42.649s19.102 42.649 42.666 42.649c23.547 0 42.649-19.086 42.649-42.649s-19.086-42.649-42.649-42.649z" horiz-adv-x="569" />
<glyph unicode="&#xe604;" d="M309.099 213.681l47.257-47.289c5.197-5.229 5.197-13.71 0-18.939-5.212-5.197-13.661-5.197-18.889 0l-47.24 47.306-47.24-47.306c-5.213-5.197-13.677-5.197-18.889 0-5.213 5.229-5.213 13.71 0 18.939l47.24 47.289-47.24 47.322c-5.213 5.229-5.213 13.677 0 18.906s13.677 5.229 18.889 0l47.24-47.29 47.24 47.29c5.197 5.229 13.661 5.229 18.889 0s5.197-13.677 0-18.906l-47.257-47.322zM290.209 370.976c-86.883 0-157.279-70.412-157.279-157.279 0-86.851 70.411-157.279 157.279-157.279 86.834 0 157.279 70.445 157.279 157.279 0 86.866-70.396 157.279-157.279 157.279zM290.209 76.844c-75.591 0-136.852 61.277-136.852 136.853 0 75.591 61.261 136.852 136.852 136.852 75.575 0 136.853-61.261 136.853-136.852 0-75.576-61.277-136.852-136.852-136.852z" horiz-adv-x="569" />
<glyph unicode="&#xe605;" d="M308.086 366.972c-86.883 0-157.279-70.411-157.279-157.279 0-86.851 70.411-157.279 157.279-157.279 86.834 0 157.279 70.445 157.279 157.279 0 86.866-70.411 157.279-157.279 157.279zM308.086 72.841c-75.591 0-136.852 61.277-136.852 136.852 0 75.591 61.261 136.852 136.852 136.852 75.576 0 136.852-61.261 136.852-136.852 0-75.576-61.277-136.852-136.852-136.852zM341.306 270.611c-12.599 0-24.445-4.837-33.221-13.17-8.775 8.333-20.622 13.17-33.221 13.17-26.341 0-47.78-21.014-47.78-46.832 0-55.329 73.468-91.769 76.572-93.272l4.428-2.173 4.428 2.173c3.121 1.536 76.572 37.926 76.572 93.272 0 25.818-21.423 46.832-47.78 46.832zM337.351 171.179c-11.455-9.641-23.106-16.635-29.266-20.050-6.127 3.415-17.779 10.409-29.266 20.050-14.347 12.075-31.488 31.031-31.488 52.601 0 14.625 12.353 26.505 27.534 26.505 10.229 0 19.56-5.425 24.348-14.151l8.873-16.144 8.873 16.144c4.788 8.726 14.102 14.151 24.348 14.151 15.197 0 27.55-11.896 27.55-26.505 0-21.57-17.142-40.524-31.505-52.601z" horiz-adv-x="569" />
<glyph unicode="&#xe606;" d="M310.471 383.999c-86.883 0-157.279-70.412-157.279-157.279s70.411-157.278 157.279-157.278c86.834 0 157.279 70.445 157.279 157.279 0 86.866-70.411 157.279-157.279 157.279zM310.471 89.868c-75.591 0-136.852 61.277-136.852 136.852 0 75.592 61.261 136.852 136.852 136.852 75.576 0 136.852-61.261 136.852-136.852 0-75.576-61.277-136.852-136.852-136.852zM398.204 166.408l0.262 0.343-1.7 1.34c-0.017 0.033-0.033 0.033-0.049 0.065-0.017 0-0.049 0-0.065 0.033l-81.752 64.382v84.024h-0.441c-1.062 5.572-5.768 9.87-11.618 9.87-5.899 0-10.556-4.298-11.667-9.87h-0.425v-2.14c0-0.033-0.033-0.049-0.033-0.082s0.033-0.049 0.033-0.082v-93.37h0.507l-0.262-0.327 90.707-71.441c0.017-0.033 0.017-0.033 0.033-0.033 0.017-0.033 0.017-0.033 0.033-0.033l1.716-1.34 0.278 0.343c5.065-2.598 11.308-1.585 14.935 3.055 3.661 4.625 3.203 10.932-0.49 15.262z" horiz-adv-x="569" />
<glyph unicode="&#xe607;" d="M333.629 64.426l-269.604 267.094c-10.654 10.533-10.654 27.624 0 38.132l5.51 5.486c10.654 10.532 27.892 10.532 38.498 0l244.858-242.566 248.052 245.76c10.63 10.533 27.892 10.533 38.497 0l5.51-5.486c10.654-10.533 10.654-27.624 0-38.132l-272.823-270.287c-10.606-10.533-27.868-10.533-38.498 0z" horiz-adv-x="688" />
<glyph unicode="&#xe608;" d="M375.369 378.332l269.605-267.094c10.654-10.533 10.654-27.623 0-38.132l-5.51-5.486c-10.654-10.533-27.892-10.533-38.497 0l-244.882 242.566-248.028-245.76c-10.63-10.533-27.892-10.533-38.498 0l-5.51 5.486c-10.654 10.533-10.654 27.623 0 38.132l272.823 270.287c10.606 10.533 27.868 10.533 38.498 0z" horiz-adv-x="688" />
<glyph unicode="&#xe609;" d="M32.722 200.952l198.044-200.185c7.81-7.887 20.48-7.887 28.29 0l4.050 4.096c7.81 7.901 7.81 20.694 0 28.596l-179.873 181.798 182.241 184.183c7.81 7.901 7.81 20.694 0 28.596l-4.050 4.096c-7.81 7.901-20.48 7.901-28.29 0l-200.429-202.584c-7.81-7.887-7.81-20.694 0.016-28.596z" horiz-adv-x="333" />
<glyph unicode="&#xe60a;" d="M280.76 231.963l-198.060 200.169c-7.81 7.887-20.48 7.887-28.29 0l-4.050-4.080c-7.81-7.902-7.81-20.694 0-28.596l179.873-181.798-182.226-184.183c-7.81-7.901-7.81-20.694 0-28.596l4.050-4.096c7.81-7.901 20.48-7.901 28.29 0l200.429 202.568c7.795 7.901 7.795 20.709-0.015 28.611z" horiz-adv-x="333" />
<glyph unicode="&#xe60b;" d="M541.816 445.679h-494.933c-4.71 0-8.534-3.959-8.534-8.874v-336.998c0-4.898 3.823-8.875 8.534-8.875h145.066v-79.821c0-3.584 2.082-6.81 5.274-8.192 1.058-0.443 2.167-0.666 3.26-0.666 2.219 0 4.403 0.904 6.042 2.594l82.841 86.084h252.467c4.711 0 8.534 3.959 8.534 8.875v337.015c-0.017 4.898-3.84 8.858-8.55 8.858z" horiz-adv-x="576" />
<glyph unicode="&#xe60c;" d="M194.62 291.236h-161.72c-3.305 0-5.989-2.779-5.989-6.228v-236.49c0-3.438 2.683-6.228 5.989-6.228h101.801v-56.014c0-2.515 1.461-4.779 3.701-5.749 0.743-0.312 1.521-0.467 2.287-0.467 1.557 0 3.090 0.635 4.239 1.82l58.135 60.41h177.17c3.305 0 5.988 2.779 5.988 6.228v91.478c-11.546-2.743-23.522-4.324-35.894-4.324-85.968 0-155.636 69.632-155.708 155.564zM350.316 423.111c-72.758 0-131.743-58.985-131.743-131.743s58.985-131.743 131.743-131.743 131.743 58.985 131.743 131.743-58.985 131.743-131.743 131.743z" horiz-adv-x="536" />
<glyph unicode="&#xe60d;" d="M227.555 33.641c106.339 0 192.547 86.209 192.547 192.547s-86.209 192.547-192.547 192.547-192.547-86.209-192.547-192.547 86.209-192.547 192.547-192.547zM227.555 382.624c86.401 0 156.453-70.035 156.453-156.453 0-86.401-70.052-156.453-156.453-156.453s-156.435 70.070-156.435 156.47c0 86.401 70.035 156.435 156.435 156.435zM131.282 263.385c0 13.286 10.765 24.068 24.069 24.068s24.069-10.782 24.069-24.068-10.765-24.069-24.069-24.069-24.069 10.782-24.069 24.069zM275.692 263.385c0 13.286 10.765 24.068 24.068 24.068s24.068-10.782 24.068-24.068-10.765-24.069-24.068-24.069-24.068 10.782-24.068 24.069zM167.569 131.665l-25.714 15.404c17.47 29.057 49.309 48.505 85.701 48.505s68.214-19.447 85.701-48.505l-25.714-15.404c-12.236 20.34-34.519 33.941-59.987 33.941s-47.751-13.601-59.987-33.941z" horiz-adv-x="477" />
<glyph unicode="&#xe60e;" d="M425.935 422.221h-54.214c-3.74 0-6.772-3.032-6.772-6.773v-20.328h-135.528v20.328c0 3.74-3.032 6.773-6.773 6.773h-54.214c-3.74 0-6.773-3.032-6.773-6.773v-20.328h-60.986c-3.74 0-6.772-3.032-6.772-6.772v-365.913c0-3.74 3.032-6.772 6.772-6.772h393.014c3.752 0 6.772 3.032 6.772 6.772v365.913c0 3.74-3.032 6.772-6.772 6.772h-60.986v20.329c0 3.74-3.032 6.772-6.772 6.772v0zM378.494 354.462v54.202h40.657v-54.213l-40.657 0.011zM175.208 354.462v54.202h40.657v-54.213l-40.657 0.011zM371.721 340.906h54.214c3.74 0 6.772 3.032 6.772 6.772v33.885h54.214v-81.314h-379.469v81.314h54.214v-33.885c0-3.74 3.032-6.772 6.773-6.772h54.214c3.74 0 6.773 3.032 6.773 6.772v33.885h135.527v-33.885c0-3.74 3.032-6.772 6.772-6.772v0zM107.451 29.195v257.498h379.469v-257.498h-379.469zM385.278 268.433c-3.752 0-6.772-3.032-6.772-6.773v-29.168h-81.314v29.168c0 3.74-3.032 6.773-6.772 6.773s-6.772-3.032-6.772-6.773v-29.168h-81.314v29.168c0 3.74-3.032 6.773-6.773 6.773s-6.773-3.032-6.773-6.773v-29.168h-53.923c-3.74 0-6.773-3.032-6.773-6.773s3.032-6.772 6.773-6.772h53.923v-54.214h-53.923c-3.74 0-6.773-3.032-6.773-6.772s3.032-6.784 6.773-6.784h53.923v-54.202h-53.923c-3.74 0-6.773-3.043-6.773-6.784s3.032-6.772 6.773-6.772h53.923v-26.81c0-3.74 3.032-6.772 6.773-6.772s6.773 3.032 6.773 6.772v26.81h81.314v-26.81c0-3.74 3.032-6.772 6.772-6.772 3.752 0 6.772 3.032 6.772 6.772v26.81h81.314v-26.81c0-3.74 3.032-6.772 6.772-6.772s6.772 3.032 6.772 6.772v26.81h67.479c3.74 0 6.772 3.032 6.772 6.772s-3.032 6.784-6.772 6.784h-67.479v54.202h67.479c3.74 0 6.772 3.043 6.772 6.784s-3.032 6.772-6.772 6.772h-67.479v54.214h67.479c3.74 0 6.772 3.032 6.772 6.773s-3.032 6.773-6.772 6.773h-67.479v29.168c0 3.74-3.032 6.772-6.772 6.772v0zM297.18 164.722v54.214h81.314v-54.214h-81.314zM202.321 164.722v54.214h81.314v-54.214h-81.314zM297.18 96.964v54.202h81.314v-54.202h-81.314zM202.321 96.964v54.202h81.314v-54.202h-81.314z" horiz-adv-x="569" />
<glyph unicode="&#xe60f;" d="M446.361 315.059h-12.365v-280.678c0-8.858-7.373-16.026-16.435-16.026h-235.494c-9.063 0-16.435 7.168-16.435 16.026v280.678h-12.391c-10.905 0-19.712 8.627-19.712 19.251 0 10.649 8.806 19.251 19.712 19.251h71.091v20.557c0 15.719 13.056 28.467 29.159 28.467h92.595c16.103 0 29.184-12.774 29.184-28.467v-20.583h71.065c10.88 0 19.712-8.601 19.712-19.251 0-10.599-8.832-19.226-19.687-19.226zM349.005 374.118c0 1.562-1.305 2.816-2.893 2.816h-92.621c-1.613 0-2.867-1.255-2.867-2.816v-20.582h98.381v20.582zM401.101 315.059h-202.599v-264.627h202.599v264.627zM238.413 289.946c5.478 0 9.881-4.301 9.881-9.625v-200.474c0-5.325-4.403-9.625-9.881-9.625-5.427 0-9.856 4.301-9.856 9.625v200.448c0.025 5.325 4.454 9.651 9.856 9.651zM299.801 289.946c5.453 0 9.882-4.301 9.882-9.625v-200.474c0-5.325-4.429-9.625-9.882-9.625-5.427 0-9.856 4.301-9.856 9.625v200.448c0 5.325 4.429 9.651 9.856 9.651zM361.165 289.946c5.453 0 9.882-4.301 9.882-9.625v-200.474c0-5.325-4.429-9.625-9.882-9.625-5.427 0-9.856 4.301-9.856 9.625v200.448c0.026 5.325 4.429 9.651 9.856 9.651z" horiz-adv-x="569" />
<glyph unicode="&#xe610;" d="M437.607 226.188c0-106.339-86.209-192.547-192.547-192.547s-192.547 86.209-192.547 192.547 86.209 192.547 192.547 192.547 192.547-86.209 192.547-192.547zM88.624 226.188c0-86.401 70.035-156.453 156.453-156.453 86.401 0 156.453 70.052 156.453 156.453s-70.052 156.453-156.453 156.453c-86.436-0.017-156.453-70.052-156.453-156.453zM262.091 339.493l96.256-96.274c9.4-9.4 9.4-24.646 0-34.046-9.382-9.4-24.628-9.4-34.029 0l-55.173 55.191v-134.451c0-13.303-10.765-24.068-24.069-24.068s-24.086 10.765-24.086 24.068v134.451l-55.173-55.191c-9.4-9.4-24.646-9.4-34.046 0-4.709 4.709-7.037 10.87-7.037 17.014 0 6.161 2.346 12.323 7.037 17.031l96.274 96.274c9.382 9.382 24.646 9.382 34.046 0z" horiz-adv-x="477" />
<glyph unicode="&#xe611;" d="M468.31 11.243c-1.389-1.389-3.202-2.072-4.99-2.072-1.813 0-3.601 0.683-4.99 2.072l-163.604 163.769c-26.341-23.964-61.181-38.724-99.505-38.724-81.684 0-148.138 66.548-148.138 148.327 0 81.755 66.454 148.303 148.138 148.303 81.708 0 148.162-66.548 148.162-148.303 0-38.347-14.736-73.233-38.7-99.599l163.604-163.769c2.777-2.754 2.777-7.25 0.024-10.005zM195.219 418.772c-73.916 0-134.014-60.192-134.014-134.18s60.121-134.203 134.014-134.203c73.94 0 134.038 60.216 134.038 134.203s-60.098 134.18-134.038 134.18z" />
<glyph unicode="&#xe612;" d="M236.176 91.835l-173.848 249.483c-5.439 7.799-8.176 16.797-8.176 25.861 0 7.458 1.847 14.949 5.61 21.757 8.347 15.086 24.63 24.528 42.35 24.528h347.731c17.755 0 34.004-9.442 42.35-24.528 8.347-15.12 7.355-33.422-2.531-47.618l-173.916-249.483c-8.894-12.76-23.844-20.457-39.784-20.457-15.941 0.034-30.856 7.697-39.785 20.457z" horiz-adv-x="536" />
<glyph unicode="&#xe613;" d="M35.008 440.615h41.257v-437.607h-41.258v437.607zM172.54 358.555h55.016v-54.701h-55.016v54.701zM227.555 303.855v-54.701c27.499 0 27.499-27.359 55.016-27.359v54.701c-27.517 0.018-27.517 27.359-55.016 27.359zM282.572 331.214h55.016v-54.701h-55.016v54.701zM282.572 413.256c-13.741 0-20.637 6.844-27.499 13.671s-13.758 13.688-27.517 13.688h-137.531v-273.505h137.531c13.758 0 20.637-6.844 27.499-13.671s13.759-13.671 27.499-13.671h137.548v273.487h-137.531zM392.603 276.513h-55.034v-54.701h55.034v-54.701h-55.034v54.701h-55.016v-54.701c-13.741 0-20.637 6.844-27.499 13.671s-13.741 13.671-27.499 13.671v54.701h-55.016v-54.701h-55.016v54.701h55.034v54.701h-55.034v54.701h55.034v54.701h54.999v-54.701c13.758 0 20.637-6.844 27.499-13.671s13.759-13.671 27.517-13.671v54.701h55.016v-54.701h55.034v-54.701z" horiz-adv-x="477" />
<glyph unicode="&#xe614;" d="M1450.638 274.375l-152.519 28.899-75.008 134.058-75.008-134.058-152.519-28.899 106.183-111.758-19.285-151.95 140.63 65.024 140.601-65.024-19.257 151.95 106.183 111.758zM748.458 282.112l-51.57 98.333-51.57-98.333-104.875-21.191 72.989-81.949-13.226-111.417 96.683 47.702 96.683-47.702-13.255 111.417 72.989 81.948-104.846 21.191zM312.406 271.559l-42.183 80.441-42.183-80.441-85.817-17.351 59.733-67.044-10.838-91.164 79.104 39.026 79.104-39.026-10.837 91.164 59.733 67.043-85.817 17.351z" horiz-adv-x="1565" />
<glyph unicode="&#xe615;" d="M441.147 429.899v-122.979h-193.358c-18.318 0-33.221-14.87-33.221-33.123v-70.298h-25.524l-7.157-7.092-57.731-57.094v64.17h-69.742v226.416h386.733zM528.292 240.659v-140.578h-52.29v-70.118l-64.447 70.118h-130.561v140.578h247.298zM456.932 454.411h-418.32c-4.804 0-8.726-3.857-8.726-8.628v-258.182c0-4.755 3.906-8.611 8.726-8.611h60.999v-77.569c0-3.481 2.124-6.618 5.376-7.958 1.079-0.425 2.206-0.654 3.334-0.654 2.272 0 4.493 0.866 6.16 2.517l84.596 83.664h39.969v94.792c0 4.772 3.905 8.612 8.709 8.612h217.869v163.389c0.033 4.755-3.873 8.628-8.693 8.628v0zM544.093 265.17h-287.594v-180.988c0-4.755 3.906-8.611 8.709-8.611h135.595l84.563-91.998c1.7-1.814 4.036-2.827 6.454-2.827 1.046 0 2.108 0.196 3.137 0.589 3.35 1.291 5.572 4.478 5.572 8.023v86.213h43.564c4.821 0 8.71 3.856 8.71 8.611v172.361c0 4.772-3.889 8.628-8.71 8.628v0z" horiz-adv-x="569" />
<glyph unicode="&#xe616;" d="M281.6 416l67.507-120.653 137.267-26.010-95.565-100.582 17.357-136.755-126.567 58.522-126.541-58.522 17.331 136.755-95.565 100.582 137.267 26.010 67.507 120.653z" horiz-adv-x="569" />
<glyph unicode="&#xe617;" d="M410.361 302.247v-189.632c0-2.81-1.16-5.507-3.203-7.467l-30.312-28.939c-2.026-1.945-4.657-2.925-7.272-2.925s-5.229 0.981-7.272 2.925l-33.498 31.978-33.498-31.978c-4.069-3.889-10.49-3.889-14.543 0l-33.498 31.978-32.289-30.834c-4.069-3.856-10.475-3.856-14.543 0l-31.651 30.214c-2.042 1.945-3.203 4.64-3.203 7.467v224.177c0 21.128 17.37 38.351 38.727 38.351 0.098 0 0.179-0.017 0.278-0.017s0.179 0.017 0.278 0.017h195.008c21.929 0 39.773-17.207 39.773-38.351 0.017-17.648-12.419-32.502-29.283-36.963zM204.911 356.825h-0.032c-0.098 0-0.196 0.017-0.294 0.017-0.082 0-0.163-0.017-0.245-0.017-9.821 0-17.795-7.892-17.795-17.615v-219.798l21.178-20.197 32.289 30.819c4.069 3.873 10.475 3.873 14.543 0l33.498-31.995 33.498 31.995c4.053 3.873 10.474 3.873 14.527 0l33.498-31.995 19.854 18.988v183.832h-184.55c-5.785 0-10.475 4.641-10.475 10.377 0 5.719 4.69 10.36 10.475 10.36 10.393 0 18.84 7.909 18.84 17.632 0 9.69-8.431 17.582-18.808 17.599zM399.887 356.825h-159.68c2.844-5.278 4.461-11.275 4.461-17.615s-1.618-12.337-4.461-17.615h159.68c10.392 0 18.841 7.909 18.841 17.632s-8.448 17.599-18.841 17.599zM221.922 266.821h127.309c2.32 0 4.183-1.846 4.183-4.134s-1.863-4.15-4.183-4.15h-127.31c-2.321 0-4.183 1.863-4.183 4.15s1.863 4.134 4.183 4.134zM221.922 224.237h127.309c2.32 0 4.183-1.863 4.183-4.15s-1.863-4.134-4.183-4.134h-127.31c-2.321 0-4.183 1.846-4.183 4.134s1.863 4.15 4.183 4.15zM221.922 181.637h127.309c2.32 0 4.183-1.863 4.183-4.151 0-2.304-1.863-4.134-4.183-4.134h-127.31c-2.321 0-4.183 1.846-4.183 4.134s1.863 4.151 4.183 4.151z" horiz-adv-x="569" />
<glyph unicode="&#xe618;" d="M447.389 176.784c18.808 24.625 28.22 50.983 28.22 79.105 0 24.25-7.647 44.561-22.942 60.918-15.295 16.341-32.419 24.511-51.408 24.511-15.474 0-28.481-4.918-39.022-14.755-10.556-9.837-15.817-21.439-15.817-34.805 0-12.647 4.314-23.286 12.925-31.897s18.726-12.925 30.312-12.925c5.278 0 10.997 1.046 17.142 3.17 6.161 2.108 11.177 3.154 15.034 3.154 3.513 0 6.683-1.928 9.494-5.801 2.81-3.513 4.216-10.36 4.216-20.556 0-16.536-5.442-31.913-16.341-46.146s-28.645-27.861-53.27-40.868v-17.387c35.492 11.586 62.666 29.691 81.458 54.284zM243.851 176c18.808 24.429 28.204 51.588 28.204 81.458 0 23.923-7.467 43.94-22.403 60.117-14.952 16.177-31.717 24.266-50.362 24.266-15.817 0-29.185-5.115-40.084-15.311s-16.34-22.322-16.34-36.39c0-11.945 4.314-22.142 12.925-30.59 8.612-8.431 18.727-12.648 30.312-12.648 6.324 0 12.583 1.144 18.727 3.431 6.144 2.304 10.817 3.431 13.971 3.431 3.513 0 6.863-1.928 10.017-5.801 2.81-3.857 4.216-9.837 4.216-17.925 0-17.566-4.477-32.878-13.448-45.884-8.954-13.007-27.681-27.762-56.162-44.3v-15.817c34.805 10.229 61.62 27.534 80.428 51.963z" horiz-adv-x="569" />
<glyph unicode="&#xe619;" d="M171.070 287.557c-18.808-24.625-28.22-50.983-28.22-79.105 0-24.25 7.648-44.561 22.942-60.918 15.295-16.341 32.419-24.511 51.407-24.511 15.475 0 28.482 4.918 39.022 14.755 10.556 9.837 15.817 21.439 15.817 34.805 0 12.647-4.314 23.286-12.925 31.897s-18.726 12.925-30.312 12.925c-5.278 0-10.997-1.046-17.142-3.17-6.161-2.108-11.177-3.154-15.034-3.154-3.513 0-6.684 1.928-9.494 5.801-2.81 3.513-4.216 10.36-4.216 20.556 0 16.536 5.441 31.913 16.34 46.146s28.645 27.861 53.27 40.868v17.402c-35.492-11.602-62.65-29.707-81.458-54.3zM374.608 288.341c-18.808-24.429-28.204-51.588-28.204-81.458 0-23.923 7.467-43.94 22.403-60.117 14.952-16.177 31.717-24.266 50.361-24.266 15.817 0 29.185 5.115 40.084 15.311s16.341 22.322 16.341 36.391c0 11.945-4.314 22.142-12.925 30.589-8.611 8.431-18.726 12.647-30.312 12.647-6.324 0-12.582-1.144-18.726-3.432-6.144-2.304-10.817-3.432-13.971-3.432-3.513 0-6.863 1.928-10.017 5.801-2.81 3.856-4.216 9.837-4.216 17.925 0 17.566 4.478 32.877 13.449 45.885 8.954 13.007 27.681 27.762 56.163 44.299v15.785c-34.805-10.197-61.62-27.501-80.428-51.93z" horiz-adv-x="569" />
<glyph unicode="&#xe61a;" d="M404.582 199.065l-166.451-162.176c-6.554-6.4-17.203-6.4-23.782 0l-3.405 3.303c-6.554 6.4-6.554 16.768 0 23.168l151.168 147.277-153.139 149.248c-6.579 6.4-6.579 16.768 0 23.168l3.379 3.303c6.579 6.4 17.229 6.4 23.808 0l168.423-164.096c6.579-6.4 6.579-16.793 0-23.193z" horiz-adv-x="569" />
<glyph unicode="&#xe61b;" d="M555.52 28.904h-442.319c-33.255 0-58.343 26.478-58.343 61.611v266.899c0 36.279 24.698 61.587 60.074 61.587h440.588c35.377 0 60.099-25.332 60.099-61.587v-266.899c0-33.962-26.941-61.611-60.099-61.611zM74.874 90.514c0-23.82 16.116-41.106 38.303-41.106h442.343c22.479 0 40.082 18.042 40.082 41.106v266.899c0 8.314-1.878 15.507-5.12 21.601l-239.031-193.901c-1.804-1.463-3.998-2.195-6.217-2.195-2.072 0-4.145 0.659-5.9 1.975l-259.17 194.487c-3.34-6.144-5.29-13.507-5.29-21.967v-266.899zM114.932 398.47c-7.631 0-14.311-1.756-20.017-4.706l250.124-187.685 231.058 187.441c-5.827 3.121-12.678 4.974-20.553 4.974h-440.613z" horiz-adv-x="665" />
<glyph unicode="&#xe61c;" d="M231.189 61.549l-201.669 210.567c-7.98 8.31-7.98 21.774 0 30.084l4.12 4.308c7.933 8.286 20.833 8.286 28.79 0l183.143-191.241 185.567 193.736c7.98 8.31 20.88 8.31 28.837 0l4.12-4.284c7.933-8.333 7.933-21.774 0-30.085l-204.071-213.109c-7.98-8.286-20.88-8.286-28.837 0.024z" />
<glyph unicode="&#xe61d;" d="M294.4 83.2c-70.4 0-133.018 33.305-164.096 53.146-20.813 13.312-40.013 28.519-53.965 42.88-16.922 17.357-25.139 32-25.139 44.774s8.218 27.417 25.114 44.774c13.977 14.361 33.152 29.568 53.99 42.88 31.078 19.84 93.696 53.145 164.096 53.145s133.018-33.305 164.096-53.145c20.813-13.312 40.013-28.519 53.965-42.88 16.922-17.357 25.139-32 25.139-44.774s-8.217-27.418-25.114-44.774c-13.978-14.361-33.152-29.568-53.965-42.88-31.104-19.84-93.721-53.145-164.121-53.145zM97.587 224c5.222-9.293 26.855-32.077 63.667-54.553 25.856-15.744 77.491-42.214 133.145-42.214s107.289 26.471 133.145 42.214c36.813 22.477 58.419 45.261 63.667 54.553-5.248 9.293-26.855 32.077-63.667 54.553-25.856 15.769-77.491 42.214-133.145 42.214s-107.29-26.445-133.145-42.214c-36.839-22.477-58.445-45.261-63.667-54.553zM294.4 162.56c-35.097 0-63.642 27.571-63.642 61.44s28.544 61.44 63.642 61.44 63.642-27.571 63.642-61.44-28.544-61.44-63.642-61.44zM294.4 256.205c-18.406 0-33.357-14.439-33.357-32.205s14.95-32.179 33.357-32.179c18.381 0 33.331 14.438 33.331 32.179s-14.95 32.205-33.331 32.205z" horiz-adv-x="569" />
<glyph unicode="&#xe61e;" d="M842.98 317.469l-74.98 134.087-75.008-134.087-152.548-28.871 106.183-111.758-19.257-151.95 140.63 65.024 140.601-65.024-19.285 151.95 106.183 111.758-152.519 28.871zM1479.082 275.143l-104.874 21.191-51.542 98.332-51.57-98.332-104.874-21.191 72.988-81.949-13.226-111.417 96.654 47.702 96.683-47.702-13.226 111.417 72.988 81.948zM293.319 296.334l-51.541 98.332-51.57-98.332-104.874-21.191 72.989-81.949-13.226-111.417 96.683 47.702 96.654-47.702-13.255 111.417 72.988 81.948-104.846 21.191z" horiz-adv-x="1565" />
<glyph unicode="&#xe61f;" d="M457.6 160v-51.2h-326.4v51.2h-54.4v-102.4h435.2v102.4h-54.4zM185.6 262.4h81.613v-128h54.4v128h81.613l-108.8 153.6-108.826-153.6z" horiz-adv-x="569" />
<glyph unicode="&#xe620;" d="M287.935-32h-95.935v256h-64v88.225l64 0.029-0.104 51.976c0 71.976 19.517 115.77 104.299 115.77h70.588v-88.242h-44.115c-33.016 0-34.603-12.328-34.603-35.342l-0.131-44.162h79.345l-9.352-88.225-69.927-0.029-0.065-256z" />
<glyph unicode="&#xe621;" d="M512 382.791c-18.838-8.354-39.082-14.001-60.33-16.54 21.686 13 38.343 33.585 46.186 58.115-20.298-12.039-42.778-20.78-66.705-25.49-19.16 20.415-46.461 33.17-76.673 33.17-58.011 0-105.044-47.029-105.044-105.039 0-8.233 0.929-16.25 2.72-23.939-87.3 4.382-164.701 46.2-216.509 109.753-9.042-15.514-14.223-33.558-14.223-52.809 0-36.444 18.544-68.596 46.73-87.433-17.219 0.546-33.416 5.271-47.577 13.139-0.010-0.438-0.010-0.878-0.010-1.321 0-50.894 36.209-93.348 84.261-103-8.813-2.4-18.094-3.686-27.674-3.686-6.769 0-13.349 0.66-19.764 1.886 13.368-41.73 52.16-72.103 98.126-72.948-35.95-28.175-81.243-44.967-130.458-44.967-8.479 0-16.84 0.497-25.058 1.47 46.486-29.805 101.701-47.197 161.021-47.197 193.211 0 298.868 160.062 298.868 298.872 0 4.554-0.103 9.084-0.305 13.59 20.528 14.81 38.336 33.31 52.418 54.374z" />
<glyph unicode="&#xe622;" d="M426 480h-340c-47.3 0-86-38.7-86-86v-340c0-47.3 38.7-86 86-86h340c47.3 0 86 38.7 86 86v340c0 47.3-38.7 86-86 86zM192 64h-64v224h64v-224zM160 320c-17.673 0-32 14.327-32 32s14.327 32 32 32 32-14.327 32-32-14.327-32-32-32zM416 64h-64v128c0 17.673-14.327 32-32 32s-32-14.327-32-32v-128h-64v224h64v-39.736c13.199 18.132 33.376 39.736 56 39.736 39.765 0 72-35.817 72-80v-144z" />
<glyph unicode="&#xe623;" d="M448 322.581l-82.752 82.752c-6.25 6.251-14.464 9.365-22.635 9.365-8.192 0-16.363-3.114-22.613-9.365l-233.365-233.365c-6.251-6.25-11.904-15.51-16-25.344-4.096-9.877-6.635-20.459-6.635-29.291v-96h96c8.832 0 19.37 2.538 29.248 6.635s19.114 9.75 25.365 16l233.387 233.366c6.25 6.25 9.365 14.464 9.365 22.635 0 8.192-3.115 16.362-9.365 22.613zM123.050 148.032l176.917 176.918 26.283-26.283-176.917-176.917-26.282 26.283zM160 64h-32l-21.334 21.334v32c0 1.642 0.704 6.507 3.371 12.906 0.213 0.426 63.296-62.678 63.296-62.678-6.869-2.858-11.691-3.563-13.333-3.563zM190.698 80.384l-26.282 26.282 176.917 176.918 26.283-26.282-176.917-176.918zM382.699 272.384l-67.67 67.67 27.584 27.584 67.627-67.669-27.541-27.584z" />
<glyph unicode="&#xe962;" d="M448 480h-448v-512h512v448l-64 64zM256 416h64v-128h-64v128zM448 32h-384v384h32v-160h288v160h37.489l26.511-26.509v-357.491z" />
</font>
</defs>
</svg>
