<svg xmlns="http://www.w3.org/2000/svg" width="20" height="20" viewBox="0 0 20 20">
  <defs>
    <style>
      .cls-1 {
        fill: #fff;
        fill-rule: evenodd;
      }
    </style>
  </defs>
  <path id="icon-settings" class="cls-1" d="M1589.94,403.268l-2.04,3.519a0.493,0.493,0,0,1-.61.2l-2.55-1.006a9.818,9.818,0,0,1-1.74,1.006l-0.41,2.613a0.541,0.541,0,0,1-.51.4H1578a0.469,0.469,0,0,1-.51-0.4l-0.41-2.613a9.727,9.727,0,0,1-1.73-1.006l-2.55,1.006a0.571,0.571,0,0,1-.61-0.1l-2.05-3.518a0.466,0.466,0,0,1,.11-0.6l2.14-1.709a3.118,3.118,0,0,1-.1-1.006c0-.4.1-0.7,0.1-1l-2.14-1.608a0.549,0.549,0,0,1-.21-0.6l2.04-3.519a0.647,0.647,0,0,1,.72-0.2l2.45,1a7.7,7.7,0,0,1,1.73-1l0.41-2.714a0.551,0.551,0,0,1,.51-0.4h4.08a0.41,0.41,0,0,1,.41.5l0.41,2.613a9.785,9.785,0,0,1,1.73,1l2.55-1a0.6,0.6,0,0,1,.62.1l2.04,3.518a0.466,0.466,0,0,1-.11.6l-2.14,1.709a3.115,3.115,0,0,1,.1,1c0,0.4-.1.7-0.1,1.006l2.35,1.608A0.456,0.456,0,0,1,1589.94,403.268Zm-10-6.735a3.519,3.519,0,1,0,3.57,3.518A3.586,3.586,0,0,0,1579.94,396.533Z" transform="translate(-1570 -390)"/>
</svg>
