<svg xmlns="http://www.w3.org/2000/svg" width="15" height="18" viewBox="0 0 15 18">
  <defs>
    <style>
      .cls-1 {
        fill: #fff;
        fill-rule: evenodd;
      }
    </style>
  </defs>
  <path id="icon-inventory" class="cls-1" d="M1585.33,319h-11.66a1.657,1.657,0,0,1-1.67-1.636V304.273a1.658,1.658,0,0,1,1.67-1.637h3.5a2.477,2.477,0,0,1,4.66,0h3.5a1.658,1.658,0,0,1,1.67,1.637v13.091A1.657,1.657,0,0,1,1585.33,319Zm-5.83-16.364a0.819,0.819,0,1,0,.83.819A0.778,0.778,0,0,0,1579.5,302.636Zm5.83,1.637h-1.66v2.454h-8.34v-2.454h-1.66v13.091h11.66V304.273Z" transform="translate(-1572 -301)"/>
</svg>
