<svg xmlns="http://www.w3.org/2000/svg" width="19" height="18" viewBox="0 0 19 18">
  <defs>
    <style>
      .cls-1 {
        fill: #fff;
        fill-rule: evenodd;
      }
    </style>
  </defs>
  <path id="icon-updates" class="cls-1" d="M1119.02,242.641v7.406h-15.04V239.709h15.04v2.932Zm1.19-7.274h-9.77a1.283,1.283,0,0,1-1.18-.684,1.324,1.324,0,0,0-1.19-.683h-5.28a0.747,0.747,0,0,0-.79.683v15.755a1.575,1.575,0,0,0,1.58,1.562h15.84a1.575,1.575,0,0,0,1.58-1.562v-14.29A0.791,0.791,0,0,0,1120.21,235.367Zm-10.66,9.22h1.34v2.52a0.59,0.59,0,0,0,1.18,0v-2.52h1.34c0.29,0,.35-0.16.15-0.358l-2.08-2.009-2.08,2.009C1109.2,244.427,1109.26,244.587,1109.55,244.587Z" transform="translate(-1102 -234)"/>
</svg>
